<svg width="10" height="11" viewBox="0 0 10 11" fill="none" xmlns="http://www.w3.org/2000/svg">
<mask id="path-1-inside-1_364_5164" fill="white">
<path d="M3.42563 0.910142L3.44943 0.932439L7.11993 4.58672C7.61615 5.08074 7.62646 5.87534 7.15092 6.38192L7.11993 6.41383L3.44943 10.0681C3.35387 10.1632 3.23214 10.2165 3.10733 10.2279L3.07322 10.23H3.03905C2.90248 10.2258 2.76713 10.1719 2.66289 10.0681C2.45346 9.85956 2.44599 9.52614 2.64042 9.30867L2.66289 9.28504L6.0712 5.89178C6.28062 5.68329 6.2881 5.34987 6.09362 5.1324L6.0712 5.10877L2.66289 1.71551C2.4457 1.49931 2.4457 1.14869 2.66289 0.932439C2.7676 0.828191 2.9037 0.774214 3.0409 0.770508L3.07519 0.770624C3.20098 0.774909 3.32555 0.821357 3.42563 0.910142Z"/>
</mask>
<path d="M3.42563 0.910142L4.35472 -0.137134L4.3689 -0.124555L4.38274 -0.111598L3.42563 0.910142ZM3.44943 0.932439L4.40654 -0.0893002L4.42209 -0.0747331L4.43719 -0.0596997L3.44943 0.932439ZM7.11993 4.58672L6.13219 5.57887L6.13218 5.57886L7.11993 4.58672ZM7.15092 6.38192L8.17165 7.3401L8.16357 7.34871L8.15535 7.35718L7.15092 6.38192ZM7.11993 6.41383L8.12436 7.38909L8.11609 7.3976L8.10768 7.40598L7.11993 6.41383ZM3.44943 10.0681L2.46159 9.07601L2.46169 9.07591L3.44943 10.0681ZM3.10733 10.2279L3.23478 11.6221L3.21378 11.624L3.19274 11.6253L3.10733 10.2279ZM3.07322 10.23L3.15863 11.6274L3.11596 11.63H3.07322V10.23ZM3.03905 10.23V11.63H3.01768L2.99632 11.6293L3.03905 10.23ZM2.66289 10.0681L3.65064 9.07592L3.65091 9.07618L2.66289 10.0681ZM2.64042 9.30867L1.5967 8.37558L1.61106 8.35951L1.62592 8.3439L2.64042 9.30867ZM2.66289 9.28504L1.64839 8.32027L1.66157 8.3064L1.67513 8.2929L2.66289 9.28504ZM6.0712 5.89178L5.08345 4.89965L5.08345 4.89964L6.0712 5.89178ZM6.09362 5.1324L7.10936 4.16893L7.1235 4.18384L7.13719 4.19915L6.09362 5.1324ZM6.0712 5.10877L7.05896 4.11663L7.07316 4.13077L7.08695 4.1453L6.0712 5.10877ZM2.66289 1.71551L3.65058 0.723316L3.65064 0.723373L2.66289 1.71551ZM2.66289 0.932439L1.67506 -0.0596246L1.67513 -0.0597031L2.66289 0.932439ZM3.0409 0.770508L3.00309 -0.628982L3.02436 -0.629556L3.04563 -0.629484L3.0409 0.770508ZM3.07519 0.770624L3.07992 -0.629368L3.10139 -0.629296L3.12286 -0.628564L3.07519 0.770624ZM3.42563 0.910142L4.38274 -0.111598L4.40654 -0.0893002L3.44943 0.932439L2.49233 1.95418L2.46853 1.93188L3.42563 0.910142ZM3.44943 0.932439L4.43719 -0.0596997L8.10769 3.59458L7.11993 4.58672L6.13218 5.57886L2.46168 1.92458L3.44943 0.932439ZM7.11993 4.58672L8.10768 3.59457C9.14228 4.62459 9.1637 6.28329 8.17165 7.3401L7.15092 6.38192L6.13019 5.42374C6.08922 5.46738 6.09002 5.53689 6.13219 5.57887L7.11993 4.58672ZM7.15092 6.38192L8.15535 7.35718L8.12436 7.38909L7.11993 6.41383L6.1155 5.43858L6.14649 5.40667L7.15092 6.38192ZM7.11993 6.41383L8.10768 7.40598L4.43718 11.0602L3.44943 10.0681L2.46169 9.07591L6.13219 5.42169L7.11993 6.41383ZM3.44943 10.0681L4.43728 11.0601C4.10147 11.3945 3.67151 11.5822 3.23478 11.6221L3.10733 10.2279L2.97988 8.83372C2.79277 8.85082 2.60628 8.93193 2.46159 9.07601L3.44943 10.0681ZM3.10733 10.2279L3.19274 11.6253L3.15863 11.6274L3.07322 10.23L2.9878 8.8326L3.02192 8.83051L3.10733 10.2279ZM3.07322 10.23V11.63H3.03905V10.23V8.82999H3.07322V10.23ZM3.03905 10.23L2.99632 11.6293C2.51988 11.6148 2.04184 11.4255 1.67487 11.0599L2.66289 10.0681L3.65091 9.07618C3.49243 8.91833 3.28508 8.83685 3.08177 8.83064L3.03905 10.23ZM2.66289 10.0681L1.67513 11.0602C0.935419 10.3238 0.909263 9.14452 1.5967 8.37558L2.64042 9.30867L3.68413 10.2418C3.98272 9.90777 3.97151 9.39537 3.65064 9.07592L2.66289 10.0681ZM2.64042 9.30867L1.62592 8.3439L1.64839 8.32027L2.66289 9.28504L3.67738 10.2498L3.65491 10.2734L2.64042 9.30867ZM2.66289 9.28504L1.67513 8.2929L5.08345 4.89965L6.0712 5.89178L7.05896 6.88392L3.65064 10.2772L2.66289 9.28504ZM6.0712 5.89178L5.08345 4.89964C4.76256 5.21911 4.75133 5.73162 5.05004 6.06564L6.09362 5.1324L7.13719 4.19915C7.82486 4.96812 7.79869 6.14747 7.05895 6.88393L6.0712 5.89178ZM6.09362 5.1324L5.07787 6.09586L5.05546 6.07223L6.0712 5.10877L7.08695 4.1453L7.10936 4.16893L6.09362 5.1324ZM6.0712 5.10877L5.08345 6.10091L1.67513 2.70765L2.66289 1.71551L3.65064 0.723373L7.05896 4.11663L6.0712 5.10877ZM2.66289 1.71551L1.67519 2.70771C0.908196 1.94419 0.908388 0.703772 1.67506 -0.0596246L2.66289 0.932439L3.65072 1.9245C3.98302 1.59362 3.98321 1.05444 3.65058 0.723316L2.66289 1.71551ZM2.66289 0.932439L1.67513 -0.0597031C2.04352 -0.426456 2.52407 -0.616041 3.00309 -0.628982L3.0409 0.770508L3.07871 2.17C3.28332 2.16447 3.49168 2.08284 3.65064 1.92458L2.66289 0.932439ZM3.0409 0.770508L3.04563 -0.629484L3.07992 -0.629368L3.07519 0.770624L3.07046 2.17062L3.03617 2.1705L3.0409 0.770508ZM3.07519 0.770624L3.12286 -0.628564C3.56103 -0.613636 4.0009 -0.45103 4.35472 -0.137134L3.42563 0.910142L2.49654 1.95742C2.65021 2.09375 2.84093 2.16345 3.02751 2.16981L3.07519 0.770624Z" fill="#00A6D6" mask="url(#path-1-inside-1_364_5164)"/>
</svg>
