<svg width="14" height="14" viewBox="0 0 14 14" fill="none" xmlns="http://www.w3.org/2000/svg">
<path d="M4.27637 1.07861L4.24707 1.08447C4.23787 1.08833 4.22915 1.09364 4.22168 1.10107C4.19247 1.13027 4.19256 1.17658 4.22168 1.20557L8.99316 5.95557L9.00781 5.97021L9.03906 6.00342L9.0459 6.01123L9.05273 6.01807C9.5716 6.59827 9.55151 7.48856 8.99316 8.04443L4.23633 12.7808H4.23535L4.21973 12.7983H4.21875C4.19947 12.8199 4.19508 12.85 4.20605 12.8755L4.22168 12.8989C4.23544 12.9126 4.25275 12.92 4.27246 12.9214H4.28613C4.29545 12.9205 4.30442 12.9183 4.3125 12.9146L4.33496 12.8989L9.47461 7.78271L9.50879 7.74658C9.90816 7.31213 9.89635 6.63812 9.47363 6.21729L4.33496 1.10107L4.33594 1.1001L4.33105 1.09717C4.32443 1.09136 4.31691 1.08674 4.30859 1.0835L4.28125 1.07861H4.27637Z" stroke="#00A6D6" stroke-width="1.4"/>
</svg>
